<?xml version="1.0" encoding="utf-8"?>
<!-- Generator: Adobe Illustrator 24.1.1, SVG Export Plug-In . SVG Version: 6.00 Build 0)  -->
<svg version="1.1" id="Layer_1" xmlns="http://www.w3.org/2000/svg" xmlns:xlink="http://www.w3.org/1999/xlink" x="0px" y="0px"
	 viewBox="0 0 216 144" style="enable-background:new 0 0 216 144;" xml:space="preserve">
<style type="text/css">
	.st0{fill:#FFFFFF;}
</style>
<g>
	<path class="st0" d="M253.6,277.4c-0.6,2.9-1.4,10.1-3.5,15c-2.6-1.6-5.4-2.9-8.2-4c-4.2-1.7-8.5-3.3-13-4.3
		c3.1-3.5,6.2-7,9.1-10.8c9-11.6,16.9-24,24.5-36.6c6-1.9,10.6-7.6,8.5-14.3c-0.7-2.2-16.2-8-17.3-6.3c-2.8,4.8-5.6,9.5-8.4,14.2
		c-0.4,0.1-0.8,0.2-1.2,0.3c0.3,0.2,0.5,0.3,0.8,0.5c0,0.1-0.1,0.1-0.1,0.2c-2.2-1.8-5.3-5.7-5.9-6.4c-7.8-9.5-11.5-21.4-11.3-33.7
		c0.1-3.3-17.3-6.2-17.3-6.3c-0.4,7.4-0.7,14.9-1.1,22.4c-0.1,1.5,3.5,2.9,7.4,4c4,7.6,10,14.1,17.6,18.4c2.7,1.5,5.7,3,8.9,4.3
		c-3.6,5.9-7.3,11.8-11.2,17.6c-5.4-2.3-11.7-2.7-17.9-1.9c4.9-1.3,9.8-2.9,14.6-4.9c4.2-1.7,9.1-8,2.4-10.5
		c-10.8-4-19.3-10.3-26.9-18.8c-6.4-7.1-16.5-9.8-24.4-4.4c-1.4-2.4-3.1-4.7-5-6.9c-13.7-15.1-36.4-13.5-53.7-6.1
		c-6.9,2.9-16.4,8.3-15.8,17.1c0.2,3.1,1.7,5.5,3.8,7.5c-4.7-2.3-13.3-3.6-15.1,0.1c-0.1,0.2-0.2,0.4-0.3,0.6
		c-1.3,0-2.6,0.1-3.7,0.3c-3.5,0.9-3.8,2.9-0.9,5.1c0.5,0.4,1,0.7,1.5,1c-2.2,4.7-4.5,9.3-6.7,14c-2.2,4.6-8.7,12.3-4,16.7
		c4.4,4,12.4,4.5,17.9,5.7c1.3,0.3,2.6,0.6,3.9,0.8c-2.4,0.9-6.6,3-4.4,4.7c7.4,5.6,16.4,8.9,25.8,10.1c-0.5,1.9-1,3.8-1.5,5.7
		c-6.8-1-13.7-1.7-20.6-2c-13.9-0.6-27.7,1-40.6,5.2c14.4-43.9,28.8-87.8,43.2-131.8c1-3-23.2-7.8-25.6-2.3
		C72.6,169,62.4,178.6,49.4,183c-5.2,1.8,2.5,4.4,4.2,4.9c4.1,1,9.3,1.8,13.8,1.2c-13.2,40.2-26.3,80.4-39.5,120.6
		c-1.4,4.1,22.1,5.7,25.1,3.1c9.5-8.5,20.5-14.8,32.8-18.3c11.4-3.2,22.7-2.4,34.2-0.6c-1.3,5.3-4.3,18.8-6.6,18.9
		c-4.5,0-6.9,4.8-5.7,8.7c1.4,4.7,6.3,7.2,10.8,7.1c8.6-0.1,12.1-7.7,14.4-14.8c1.8-5.6,3.4-11.3,5-17c15.9,2.5,31.9,4.6,47.8,3.2
		c-2.9,3.2-5.6,6.7-8.1,10.2c-0.1,0.1,14.8,8.4,17.3,6.3c9.1-7.8,18-15.6,26.4-24.1c2.1-0.9,4.4-1.7,6.7-2.2
		c2.1-0.4,4.3-0.7,6.4-0.7c0.9,0,1.8,0,2.7,0.1c0,0,0,0,0,0c2.7,2.7,5,6.1,8.2,8.2c3.9,2.5,8.7,4,13.1,5.1c3.9,1,6,1.3,8.1-2.6
		c2.6-4.8,3.5-11.1,4.5-16.4C271.4,281.2,253.8,276.6,253.6,277.4z M183,251.1c1.5,1.8,4.4,2.7,6.5,2.5c4.7-0.4,9.3-0.9,13.9-1.7
		c-2.4,0.7-4.6,1.6-6.7,2.4c-5.6,2.4-10.9,5.4-15.8,9C181.6,259.2,182.3,255.1,183,251.1z M196.8,231.3c3.3,2.9,6.9,5.4,10.7,7.6
		c-4.9,1.3-9.9,2.1-15,2.5c-2.5,0.2-5.7,0.8-8,2.4c0-0.1,0-0.3,0.1-0.4c1.4-6.4,3-12.8,4.9-19c0-0.1,0.1-0.2,0.1-0.3
		C191.9,226.6,194.2,229.1,196.8,231.3z M123.7,210.2c1.6-6.4,11.6-10.1,17.5-10.2c16.1-0.3,25.4,19.2,26.3,32.8
		c0.2,2.6,0.1,5.1-0.2,7.7c-0.4,1.8-0.8,3.7-1.2,5.5c-0.3,1.2-0.5,2.4-0.7,3.5c-2.4,7.6-6.9,14.5-13.3,19.4c-2.7,2-5.6,3.5-8.5,4.4
		c3.3-15.2,5.7-30.6,7.5-46.1c0.5-4.7-2.1-8.8-6.6-10.5c-3.3-1.3-9.8-0.6-10.4,4.1c-0.1,0.4-0.1,0.9-0.1,1.3
		C128.5,220.2,122,216.7,123.7,210.2z M123.7,229.3c2.7,0.8,6.2,0.6,9.3-0.3c-0.7,5.4-1.5,10.8-2.3,16.1c-2.7-4.4-6-8.3-10.6-11
		c-3.1-1.9-6.6-3-9.9-4.4c0.6-1.3,1.2-2.5,1.8-3.8c0.2-0.5,0.1-0.9-0.2-1.4C115.6,226.9,120.2,228.3,123.7,229.3z M96.4,258.5
		c1.1-0.9,1.6-3.1,2.2-4.5c2.7-5.6,5.4-11.3,8.1-16.9c1.2,0.8,2.3,1.6,3.2,2.6c2.9,3.1,4.8,7.2,6.5,11c0.8,1.6,3,5.7,2.4,7.4
		c-0.8,2.2-4.2,3-6.2,3.1c-4.4,0.3-9.3-1.4-13.6-2.4C98.6,258.7,97.5,258.6,96.4,258.5z M117.4,269.1c1.1,0,2.2,0,3.3,0
		c1.6-0.1,3.6-0.2,5.5-0.6c-0.1,0.2-0.1,0.5-0.2,0.7c-0.3,1.2-0.5,2.4-0.8,3.6C122.5,271.9,119.9,270.7,117.4,269.1z M144.4,291
		c-1.6-0.3-3.2-0.5-4.8-0.8c0.4-1.6,0.8-3.3,1.2-4.9c0.3-1.3,0.6-2.6,0.9-3.9c7-1.1,13.8-3.5,19.9-6.9c-0.4,4.2-0.8,8.4-1.1,12.6
		c-0.5,8.5,14.1,7.5,17.3,1.8c5-8.9,11.9-16.3,20.7-21.4c6.4-3.7,18.3-9.4,24.6-3.5c-0.8,1-1.5,2-2.3,3.1
		c-5.2,6.7-10.9,13-16.9,18.9c-3.2,1.4-6.2,3.2-9,5.4c-4.6-0.7-9.4-0.8-13.8,0.4C168.9,295,156.7,293.1,144.4,291z"/>
	<path class="st0" d="M84.3,143.2c1.7,0.6,3.7,0.8,5.8,0.7c2,4.2,4.8,7.9,8.4,10.7c13,9.9,26.6,5.2,36.5-5.2
		c4.5,2.4,9.8,4.4,11.5,3.1c7.1-5.5,14.9-10,23.1-13.3c-0.4,4.9-0.7,9.9-0.9,14.9c-0.1,3.7,17.1,11.8,18.4,8.8
		c3.1-6.8,7.8-12.8,14.3-16.6c5.9-3.4,16.7-6.9,23.1-3.2c1.5,0.9,10.6,5.8,12,4c1.7-2.1-3.7-4.7-5.2-5.6
		c-13.1-7.5-28.8-10.9-41.8-6.8c0.1-0.4,0.1-0.9,0.2-1.3c10.3-1.8,20.9-2,31.5-0.4c0.7,0.2,1.3,0,1.8-0.4
		c-0.5-11.4-4.1-26.7-11.1-36c-4.9-6.6-17.3-14-25.9-12.6c-8,1.3-10.2,12.7-11.5,21.2c-4.2-3.7-15.6-8.8-16.9-6.3
		c-4.8,9.2-10.2,18-15.9,26.5c-0.8-21.9-0.4-43.8,1.4-65.7c0.8-9.8-19-14.5-19.8-5.1c-1.1,13.2-1.7,26.3-1.9,39.5
		c-1.4,0.8-2.4,1.7-3.1,2.7c-0.2,0.3-0.3,0.5-0.5,0.8c-6.5-2.5-13.1-1.6-18.6,1.7c0.7-14,2.9-27.9,6.7-41.5
		c2.9-10.3-16.6-7.2-18.7,0.3c-4.6,16.5-7.2,33.2-7.7,50c-5-4.1-10.7-7.3-17.4-9c-14.2-3.6-36.6,2.3-37.5,19.9
		c-0.5,8.8,4.1,19.4,10.9,26.9c-7,0.4-14.1-0.1-21.1-1.8c-16.9-4.1-37-19.4-31.8-39.2c2.3-8.9,9.8-15.7,17.8-19.5
		c3.8-1.8,7.7-3,11.8-3.9c6.3,0.9,12.7,1.3,19,1.2c1.1,0.1,2.3,0.1,3.5-0.1c0.4,0,0.9,0,1.3,0c4.3-0.2,17-3.9,12.5-10.3
		c-1.4-2-3.4-3.3-5.8-4c-0.6-1.1-1.3-2.2-1.9-3.3c-2.5-7.5-2-16.5-1.6-24c0.7-12.1,3.3-23.9,7.2-35.3c2.4-7.1-17.3-4.1-19.7,2.9
		c-3,8.7-5.1,17.5-6.3,26.5c-4.2-4.8-8.8-9.2-13.9-13.1c-16.3-12.4-43.2-19-59-1.4C-68.6,38.6-44.5,58.5-30,67.1
		c6.9,4.1,14.3,7.4,22,9.8c-1.5,0.7-3,1.5-4.4,2.3c-16.5,9.3-31.1,27.5-23.3,47.3C-28,146-6.6,155.4,13,157.6
		c12.4,1.4,24.8,0.4,36.8-2.4C62.9,158.8,74.8,152.1,84.3,143.2z M-5.9,61.3c-11.2-5.2-33.3-17.4-31.9-32.4
		C-36.2,9.6-6.4,34.1-1,39.7c8.4,8.6,15.1,18.7,21.1,29c-0.6,0.1-1.1,0.2-1.7,0.3C10.1,67.5,1.9,65-5.9,61.3z M119.7,137.6
		c-1.2,1.5-4.9,7.1-7,7.3c-2.8,0.3-4.5-5.4-5.1-8c-0.6-2.4-1-5.2-1.1-8c3.1-2.2,6.1-4.5,8.9-6.9c0.1,0.3,0.1,0.5,0.2,0.8
		c1.1,5,2.4,9.7,4.9,13.9C120.2,137,119.9,137.3,119.7,137.6z M167.3,124.7c-0.4,0.1-0.9,0.2-1.3,0.3c2.5-4,4.9-8.1,7.2-12.3
		c-0.7,3.7-1.3,7.4-1.9,11.1C170,124.1,168.7,124.3,167.3,124.7z M196.4,100.9c0.4-1.2,0.8-2.4,1.4-3.5c0.6,1.6,1.2,3.2,1.8,4.8
		c1.5,4,2.8,8.1,3.8,12.3c0.4,2,1.1,4.3,0.6,6.3c-0.8,2.9-1,1.9-4,1.7c-2.8-0.3-5.6-0.4-8.5-0.4c0.6-3.1,1.2-6.3,1.9-9.4
		C194.3,108.7,195.1,104.7,196.4,100.9z M56.4,139.6c-5.8-4.7-11-14.1-12.1-21.5c-0.6-4.1-0.6-6.8,3.8-6.5
		c5.1,0.3,10.3,3.3,14.2,6.3c5.1,3.9,9.3,8.9,13,14.2c-0.9,1.1-1.8,2.2-2.7,3.3c-4.5,2.2-9.2,4.2-13.9,5.8
		C58,140.7,57.2,140.2,56.4,139.6z"/>
	<path class="st0" d="M162.9,81.5c3.9,1.9,7.8,2.1,8.7,0.3c0.9-1.8-1.6-4.8-5.6-6.7s-7.8-2.1-8.7-0.3
		C156.5,76.5,159,79.5,162.9,81.5z"/>
</g>
</svg>
